<?xml version="1.0" encoding="UTF-8" standalone="no"?>
<!DOCTYPE svg PUBLIC "-//W3C//DTD SVG 1.1//EN"
 "http://www.w3.org/Graphics/SVG/1.1/DTD/svg11.dtd">
<!-- Generated by graphviz version 12.2.1 (20241206.2353)
 -->
<!-- Title: LAYOUT Pages: 1 -->
<svg width="705pt" height="190pt"
 viewBox="0.00 0.00 705.00 190.00" xmlns="http://www.w3.org/2000/svg" xmlns:xlink="http://www.w3.org/1999/xlink">
<g id="graph0" class="graph" transform="scale(1 1) rotate(0) translate(4 186)">
<title>LAYOUT</title>
<polygon fill="white" stroke="none" points="-4,4 -4,-186 701,-186 701,4 -4,4"/>
<!-- n111 -->
<g id="node1" class="node">
<title>n111</title>
</g>
<!-- n112 -->
<g id="node2" class="node">
<title>n112</title>
</g>
<!-- n111&#45;&gt;n112 -->
<g id="edge1" class="edge">
<title>n111&#45;&gt;n112</title>
<path fill="none" stroke="black" d="M53.61,-164C62.4,-164 72.35,-164 81.78,-164"/>
<polygon fill="black" stroke="black" points="91.63,-160 91.63,-168 83.63,-168 83.63,-160 91.63,-160"/>
<polyline fill="none" stroke="black" points="83.63,-164 81.63,-164"/>
<text text-anchor="middle" x="73" y="-170.2" font-family="Times,serif" font-size="14.00">box</text>
</g>
<!-- n211 -->
<g id="node9" class="node">
<title>n211</title>
</g>
<!-- n111&#45;&gt;n211 -->
<!-- n121 -->
<g id="node3" class="node">
<title>n121</title>
</g>
<!-- n122 -->
<g id="node4" class="node">
<title>n122</title>
</g>
<!-- n121&#45;&gt;n122 -->
<g id="edge2" class="edge">
<title>n121&#45;&gt;n122</title>
<path fill="none" stroke="black" d="M245.79,-164C256.58,-164 269.2,-164 280.85,-164"/>
<polygon fill="black" stroke="black" points="280.85,-164 290.85,-168.5 286.19,-164 290.52,-164 290.52,-164 290.52,-164 286.19,-164 290.85,-159.5 280.85,-164"/>
<text text-anchor="middle" x="268.5" y="-170.2" font-family="Times,serif" font-size="14.00">crow</text>
</g>
<!-- n221 -->
<g id="node11" class="node">
<title>n221</title>
</g>
<!-- n121&#45;&gt;n221 -->
<!-- n131 -->
<g id="node5" class="node">
<title>n131</title>
</g>
<!-- n132 -->
<g id="node6" class="node">
<title>n132</title>
</g>
<!-- n131&#45;&gt;n132 -->
<g id="edge3" class="edge">
<title>n131&#45;&gt;n132</title>
<path fill="none" stroke="black" d="M416.8,-164C428.42,-164 442.22,-164 454.81,-164"/>
<polyline fill="none" stroke="black" points="465.03,-164 454.53,-164"/>
<path fill="none" stroke="black" d="M459.53,-159C466.19,-159 466.19,-169 459.53,-169"/>
<text text-anchor="middle" x="441" y="-170.2" font-family="Times,serif" font-size="14.00">curve</text>
</g>
<!-- n231 -->
<g id="node13" class="node">
<title>n231</title>
</g>
<!-- n131&#45;&gt;n231 -->
<!-- n141 -->
<g id="node7" class="node">
<title>n141</title>
</g>
<!-- n142 -->
<g id="node8" class="node">
<title>n142</title>
</g>
<!-- n141&#45;&gt;n142 -->
<g id="edge4" class="edge">
<title>n141&#45;&gt;n142</title>
<path fill="none" stroke="black" d="M590.75,-164C603.55,-164 619.09,-164 633.01,-164"/>
<polyline fill="none" stroke="black" points="643.26,-164 633.26,-164"/>
<path fill="none" stroke="black" d="M638.26,-159C631.59,-159 631.59,-169 638.26,-169"/>
<text text-anchor="middle" x="617" y="-170.2" font-family="Times,serif" font-size="14.00">icurve</text>
</g>
<!-- n241 -->
<g id="node15" class="node">
<title>n241</title>
</g>
<!-- n141&#45;&gt;n241 -->
<!-- n212 -->
<g id="node10" class="node">
<title>n212</title>
</g>
<!-- n211&#45;&gt;n212 -->
<g id="edge5" class="edge">
<title>n211&#45;&gt;n212</title>
<path fill="none" stroke="black" d="M53.93,-91C69.6,-91 89.65,-91 107.12,-91"/>
<polygon fill="black" stroke="black" points="107.26,-91 113.26,-87 119.26,-91 113.26,-95 107.26,-91"/>
<text text-anchor="middle" x="87" y="-97.2" font-family="Times,serif" font-size="14.00">diamond</text>
</g>
<!-- n311 -->
<g id="node17" class="node">
<title>n311</title>
</g>
<!-- n211&#45;&gt;n311 -->
<!-- n222 -->
<g id="node12" class="node">
<title>n222</title>
</g>
<!-- n221&#45;&gt;n222 -->
<g id="edge6" class="edge">
<title>n221&#45;&gt;n222</title>
<path fill="none" stroke="black" d="M245.52,-91C254.15,-91 263.88,-91 273.08,-91"/>
<ellipse fill="black" stroke="black" cx="277.55" cy="-91" rx="4" ry="4"/>
<text text-anchor="middle" x="264" y="-97.2" font-family="Times,serif" font-size="14.00">dot</text>
</g>
<!-- n321 -->
<g id="node19" class="node">
<title>n321</title>
</g>
<!-- n221&#45;&gt;n321 -->
<!-- n232 -->
<g id="node14" class="node">
<title>n232</title>
</g>
<!-- n231&#45;&gt;n232 -->
<g id="edge7" class="edge">
<title>n231&#45;&gt;n232</title>
<path fill="none" stroke="black" d="M416.52,-91C424.7,-91 433.87,-91 442.64,-91"/>
<polygon fill="black" stroke="black" points="452.55,-94.5 442.55,-91 452.55,-87.5 452.55,-94.5"/>
<text text-anchor="middle" x="435" y="-97.2" font-family="Times,serif" font-size="14.00">inv</text>
</g>
<!-- n331 -->
<g id="node21" class="node">
<title>n331</title>
</g>
<!-- n231&#45;&gt;n331 -->
<!-- n242 -->
<g id="node16" class="node">
<title>n242</title>
</g>
<!-- n241&#45;&gt;n242 -->
<g id="edge8" class="edge">
<title>n241&#45;&gt;n242</title>
<path fill="none" stroke="black" d="M590.78,-91C604.61,-91 621.43,-91 635.25,-91"/>
<text text-anchor="middle" x="613" y="-97.2" font-family="Times,serif" font-size="14.00">none</text>
</g>
<!-- n312 -->
<g id="node18" class="node">
<title>n312</title>
</g>
<!-- n311&#45;&gt;n312 -->
<g id="edge9" class="edge">
<title>n311&#45;&gt;n312</title>
<path fill="none" stroke="black" d="M53.87,-18C67.78,-18 84.99,-18 100.21,-18"/>
<polygon fill="black" stroke="black" points="99.86,-21.5 109.86,-18 99.86,-14.5 99.86,-21.5"/>
<text text-anchor="middle" x="82.5" y="-24.2" font-family="Times,serif" font-size="14.00">normal</text>
</g>
<!-- n322 -->
<g id="node20" class="node">
<title>n322</title>
</g>
<!-- n321&#45;&gt;n322 -->
<g id="edge10" class="edge">
<title>n321&#45;&gt;n322</title>
<path fill="none" stroke="black" d="M245.52,-18C255.41,-18 266.74,-18 277.07,-18"/>
<polygon fill="black" stroke="black" points="281.05,-13 281.05,-23 279.05,-23 279.05,-13 281.05,-13"/>
<polyline fill="none" stroke="black" points="282.05,-18 277.05,-18"/>
<text text-anchor="middle" x="264" y="-24.2" font-family="Times,serif" font-size="14.00">tee</text>
</g>
<!-- n332 -->
<g id="node22" class="node">
<title>n332</title>
</g>
<!-- n331&#45;&gt;n332 -->
<g id="edge11" class="edge">
<title>n331&#45;&gt;n332</title>
<path fill="none" stroke="black" d="M416.81,-18C424.98,-18 434.11,-18 442.88,-18"/>
<polygon fill="black" stroke="black" points="452.85,-18 442.85,-22.5 449.07,-18 442.85,-18 442.85,-18 442.85,-18 449.07,-18 442.85,-13.5 452.85,-18"/>
<text text-anchor="middle" x="435.5" y="-24.2" font-family="Times,serif" font-size="14.00">vee</text>
</g>
</g>
</svg>
