<?xml version="1.0" encoding="UTF-8" standalone="no"?>
<!DOCTYPE svg PUBLIC "-//W3C//DTD SVG 1.1//EN"
 "http://www.w3.org/Graphics/SVG/1.1/DTD/svg11.dtd">
<!-- Generated by graphviz version 12.2.1 (20241206.2353)
 -->
<!-- Title: LAYOUT Pages: 1 -->
<svg width="650pt" height="1060pt"
 viewBox="0.00 0.00 649.95 1059.87" xmlns="http://www.w3.org/2000/svg" xmlns:xlink="http://www.w3.org/1999/xlink">
<g id="graph0" class="graph" transform="scale(1 1) rotate(0) translate(4 1055.87)">
<title>LAYOUT</title>
<polygon fill="white" stroke="none" points="-4,4 -4,-1055.87 645.95,-1055.87 645.95,4 -4,4"/>
<!-- n11 -->
<g id="node1" class="node">
<title>n11</title>
<polygon fill="white" stroke="black" points="96.51,-1026.67 10.11,-1026.67 10.11,-990.67 96.51,-990.67 96.51,-1026.67"/>
<text text-anchor="middle" x="53.31" y="-1004.8" font-family="Times,serif" font-size="10.00">box</text>
</g>
<!-- n21 -->
<g id="node6" class="node">
<title>n21</title>
<ellipse fill="white" stroke="black" cx="53.31" cy="-910.22" rx="18" ry="18"/>
</g>
<!-- n11&#45;&gt;n21 -->
<!-- n12 -->
<g id="node2" class="node">
<title>n12</title>
<polygon fill="white" stroke="black" points="239.51,-1026.67 153.11,-1026.67 153.11,-990.67 239.51,-990.67 239.51,-1026.67"/>
<text text-anchor="middle" x="196.31" y="-1004.8" font-family="Times,serif" font-size="10.00">polygon</text>
</g>
<!-- n22 -->
<g id="node7" class="node">
<title>n22</title>
<polygon fill="white" stroke="black" points="200.57,-892.27 203.39,-892.37 206.17,-892.52 208.92,-892.71 211.62,-892.96 214.25,-893.25 216.81,-893.59 219.29,-893.97 221.68,-894.4 223.96,-894.87 226.14,-895.38 228.2,-895.94 230.13,-896.53 231.94,-897.16 233.6,-897.83 235.13,-898.53 236.52,-899.26 237.76,-900.02 238.85,-900.81 239.79,-901.63 240.58,-902.47 241.22,-903.33 241.71,-904.21 242.05,-905.11 242.25,-906.02 242.3,-906.94 242.21,-907.87 241.99,-908.81 241.64,-909.75 241.16,-910.69 240.56,-911.63 239.84,-912.57 239.02,-913.5 238.09,-914.42 237.06,-915.34 235.94,-916.23 234.74,-917.11 233.46,-917.97 232.1,-918.81 230.68,-919.63 229.2,-920.42 227.67,-921.18 226.08,-921.92 224.45,-922.62 222.78,-923.28 221.08,-923.91 219.34,-924.51 217.58,-925.06 215.79,-925.57 213.99,-926.05 212.17,-926.47 210.33,-926.86 208.48,-927.19 206.62,-927.49 204.76,-927.73 202.89,-927.93 201.01,-928.07 199.13,-928.17 197.25,-928.22 195.37,-928.22 193.49,-928.17 191.61,-928.07 189.74,-927.93 187.86,-927.73 186,-927.49 184.14,-927.19 182.29,-926.86 180.46,-926.47 178.63,-926.05 176.83,-925.57 175.04,-925.06 173.28,-924.51 171.55,-923.91 169.84,-923.28 168.17,-922.62 166.54,-921.92 164.96,-921.18 163.42,-920.42 161.94,-919.63 160.52,-918.81 159.17,-917.97 157.88,-917.11 156.68,-916.23 155.56,-915.34 154.54,-914.42 153.61,-913.5 152.78,-912.57 152.07,-911.63 151.46,-910.69 150.99,-909.75 150.63,-908.81 150.41,-907.87 150.32,-906.94 150.37,-906.02 150.57,-905.11 150.91,-904.21 151.4,-903.33 152.04,-902.47 152.83,-901.63 153.77,-900.81 154.86,-900.02 156.1,-899.26 157.49,-898.53 159.02,-897.83 160.69,-897.16 162.49,-896.53 164.43,-895.94 166.49,-895.38 168.66,-894.87 170.95,-894.4 173.33,-893.97 175.81,-893.59 178.37,-893.25 181.01,-892.96 183.7,-892.71 186.45,-892.52 189.24,-892.37 192.06,-892.27 194.89,-892.22 197.73,-892.22 200.57,-892.27"/>
<text text-anchor="middle" x="196.31" y="-906.35" font-family="Times,serif" font-size="10.00">egg</text>
</g>
<!-- n12&#45;&gt;n22 -->
<!-- n13 -->
<g id="node3" class="node">
<title>n13</title>
<ellipse fill="white" stroke="black" cx="345.31" cy="-1008.67" rx="43.2" ry="18"/>
<text text-anchor="middle" x="345.31" y="-1004.8" font-family="Times,serif" font-size="10.00">ellipse</text>
</g>
<!-- n23 -->
<g id="node8" class="node">
<title>n23</title>
<polygon fill="white" stroke="black" points="345.31,-929.47 289.1,-900.6 401.52,-900.6 345.31,-929.47"/>
<text text-anchor="middle" x="345.31" y="-906.35" font-family="Times,serif" font-size="10.00">triangle</text>
</g>
<!-- n13&#45;&gt;n23 -->
<!-- n14 -->
<g id="node4" class="node">
<title>n14</title>
<ellipse fill="white" stroke="black" cx="469.31" cy="-1008.67" rx="43.2" ry="18"/>
<text text-anchor="middle" x="469.31" y="-1004.8" font-family="Times,serif" font-size="10.00">oval</text>
</g>
<!-- n24 -->
<g id="node9" class="node">
<title>n24</title>
<polygon fill="white" stroke="none" points="512.51,-928.22 426.11,-928.22 426.11,-892.22 512.51,-892.22 512.51,-928.22"/>
<text text-anchor="middle" x="469.31" y="-906.35" font-family="Times,serif" font-size="10.00">plaintext</text>
</g>
<!-- n14&#45;&gt;n24 -->
<!-- n15 -->
<g id="node5" class="node">
<title>n15</title>
<ellipse fill="white" stroke="black" cx="588.31" cy="-1008.67" rx="43.2" ry="43.2"/>
<text text-anchor="middle" x="588.31" y="-1004.8" font-family="Times,serif" font-size="10.00">circle</text>
</g>
<!-- n25 -->
<g id="node10" class="node">
<title>n25</title>
<polygon fill="white" stroke="none" points="598.81,-915.85 577.81,-915.85 577.81,-904.6 598.81,-904.6 598.81,-915.85"/>
<text text-anchor="middle" x="588.31" y="-906.35" font-family="Times,serif" font-size="10.00">plain</text>
</g>
<!-- n15&#45;&gt;n25 -->
<!-- n31 -->
<g id="node11" class="node">
<title>n31</title>
<polygon fill="white" stroke="black" points="53.31,-854.97 9.8,-836.97 53.31,-818.97 96.82,-836.97 53.31,-854.97"/>
<text text-anchor="middle" x="53.31" y="-833.1" font-family="Times,serif" font-size="10.00">diamond</text>
</g>
<!-- n21&#45;&gt;n31 -->
<!-- n32 -->
<g id="node12" class="node">
<title>n32</title>
<polygon fill="white" stroke="black" points="223.92,-854.97 168.7,-854.97 149.03,-818.97 243.59,-818.97 223.92,-854.97"/>
<text text-anchor="middle" x="196.31" y="-833.1" font-family="Times,serif" font-size="10.00">trapezium</text>
</g>
<!-- n22&#45;&gt;n32 -->
<!-- n33 -->
<g id="node13" class="node">
<title>n33</title>
<polygon fill="white" stroke="black" points="407.99,-854.97 308.28,-854.97 282.63,-818.97 382.34,-818.97 407.99,-854.97"/>
<text text-anchor="middle" x="345.31" y="-833.1" font-family="Times,serif" font-size="10.00">parallelogram</text>
</g>
<!-- n23&#45;&gt;n33 -->
<!-- n34 -->
<g id="node14" class="node">
<title>n34</title>
<polygon fill="white" stroke="black" points="512.51,-842.53 469.31,-854.97 426.11,-842.53 426.15,-822.41 512.47,-822.41 512.51,-842.53"/>
<text text-anchor="middle" x="469.31" y="-833.1" font-family="Times,serif" font-size="10.00">house</text>
</g>
<!-- n24&#45;&gt;n34 -->
<!-- n35 -->
<g id="node15" class="node">
<title>n35</title>
<polygon fill="white" stroke="black" points="631.51,-842.53 588.31,-854.97 545.11,-842.53 561.61,-822.41 615.01,-822.41 631.51,-842.53"/>
<text text-anchor="middle" x="588.31" y="-833.1" font-family="Times,serif" font-size="10.00">pentagon</text>
</g>
<!-- n25&#45;&gt;n35 -->
<!-- n41 -->
<g id="node16" class="node">
<title>n41</title>
<polygon fill="white" stroke="black" points="96.51,-735.77 74.91,-753.77 31.71,-753.77 10.11,-735.77 31.71,-717.77 74.91,-717.77 96.51,-735.77"/>
<text text-anchor="middle" x="53.31" y="-731.9" font-family="Times,serif" font-size="10.00">hexagon</text>
</g>
<!-- n31&#45;&gt;n41 -->
<!-- n42 -->
<g id="node17" class="node">
<title>n42</title>
<polygon fill="white" stroke="black" points="239.51,-731.77 230.96,-746.99 196.31,-753.77 161.67,-746.99 153.11,-731.77 177.09,-719.55 215.54,-719.55 239.51,-731.77"/>
<text text-anchor="middle" x="196.31" y="-731.9" font-family="Times,serif" font-size="10.00">septagon</text>
</g>
<!-- n32&#45;&gt;n42 -->
<!-- n43 -->
<g id="node18" class="node">
<title>n43</title>
<polygon fill="white" stroke="black" points="388.51,-728.32 388.51,-743.23 363.21,-753.77 327.42,-753.77 302.11,-743.23 302.11,-728.32 327.42,-717.77 363.21,-717.77 388.51,-728.32"/>
<text text-anchor="middle" x="345.31" y="-731.9" font-family="Times,serif" font-size="10.00">octagon</text>
</g>
<!-- n33&#45;&gt;n43 -->
<!-- n44 -->
<g id="node19" class="node">
<title>n44</title>
<ellipse fill="white" stroke="black" cx="469.31" cy="-735.77" rx="43.2" ry="43.2"/>
<ellipse fill="none" stroke="black" cx="469.31" cy="-735.77" rx="47.2" ry="47.2"/>
<text text-anchor="middle" x="469.31" y="-731.9" font-family="Times,serif" font-size="10.00">doublecircle</text>
</g>
<!-- n34&#45;&gt;n44 -->
<!-- n45 -->
<g id="node20" class="node">
<title>n45</title>
<polygon fill="white" stroke="black" points="637.95,-728.32 637.95,-743.23 608.87,-753.77 567.75,-753.77 538.68,-743.23 538.68,-728.32 567.75,-717.77 608.87,-717.77 637.95,-728.32"/>
<polygon fill="none" stroke="black" points="641.95,-725.51 641.95,-746.03 609.57,-757.77 567.05,-757.77 534.68,-746.03 534.68,-725.51 567.05,-713.77 609.57,-713.77 641.95,-725.51"/>
<text text-anchor="middle" x="588.31" y="-731.9" font-family="Times,serif" font-size="10.00">doubleoctagon</text>
</g>
<!-- n35&#45;&gt;n45 -->
<!-- n51 -->
<g id="node21" class="node">
<title>n51</title>
<polygon fill="white" stroke="black" points="98.62,-619.12 98.62,-634.03 72.08,-644.57 34.54,-644.57 8,-634.03 8,-619.12 34.54,-608.57 72.08,-608.57 98.62,-619.12"/>
<polygon fill="none" stroke="black" points="102.62,-616.4 102.62,-636.74 72.85,-648.57 33.78,-648.57 4,-636.74 4,-616.4 33.78,-604.57 72.85,-604.57 102.62,-616.4"/>
<polygon fill="none" stroke="black" points="106.62,-613.69 106.62,-639.46 73.61,-652.57 33.01,-652.57 0,-639.46 0,-613.69 33.01,-600.57 73.61,-600.57 106.62,-613.69"/>
<text text-anchor="middle" x="53.31" y="-622.7" font-family="Times,serif" font-size="10.00">tripleoctagon</text>
</g>
<!-- n41&#45;&gt;n51 -->
<!-- n52 -->
<g id="node22" class="node">
<title>n52</title>
<polygon fill="white" stroke="black" points="196.31,-607.32 268.5,-636.2 124.12,-636.2 196.31,-607.32"/>
<text text-anchor="middle" x="196.31" y="-622.7" font-family="Times,serif" font-size="10.00">invtriangle</text>
</g>
<!-- n42&#45;&gt;n52 -->
<!-- n53 -->
<g id="node23" class="node">
<title>n53</title>
<polygon fill="white" stroke="black" points="311.1,-608.57 379.52,-608.57 403.89,-644.57 286.74,-644.57 311.1,-608.57"/>
<text text-anchor="middle" x="345.31" y="-622.7" font-family="Times,serif" font-size="10.00">invtrapezium</text>
</g>
<!-- n43&#45;&gt;n53 -->
<!-- n54 -->
<g id="node24" class="node">
<title>n54</title>
<polygon fill="white" stroke="black" points="426.11,-621.01 469.31,-608.57 512.51,-621.01 512.47,-641.13 426.15,-641.13 426.11,-621.01"/>
<text text-anchor="middle" x="469.31" y="-622.7" font-family="Times,serif" font-size="10.00">invhouse</text>
</g>
<!-- n44&#45;&gt;n54 -->
<!-- n55 -->
<g id="node25" class="node">
<title>n55</title>
<polygon fill="white" stroke="black" points="588.31,-644.57 537.27,-626.57 588.31,-608.57 639.36,-626.57 588.31,-644.57"/>
<polyline fill="none" stroke="black" points="548.58,-630.56 548.58,-622.58"/>
<polyline fill="none" stroke="black" points="576.99,-612.56 599.63,-612.56"/>
<polyline fill="none" stroke="black" points="628.04,-622.58 628.04,-630.56"/>
<polyline fill="none" stroke="black" points="599.63,-640.58 576.99,-640.58"/>
<text text-anchor="middle" x="588.31" y="-622.7" font-family="Times,serif" font-size="10.00">Mdiamond</text>
</g>
<!-- n45&#45;&gt;n55 -->
<!-- n61 -->
<g id="node26" class="node">
<title>n61</title>
<polygon fill="white" stroke="black" points="96.51,-564.57 10.11,-564.57 10.11,-478.17 96.51,-478.17 96.51,-564.57"/>
<polyline fill="none" stroke="black" points="22.11,-564.57 10.11,-552.57"/>
<polyline fill="none" stroke="black" points="10.11,-490.17 22.11,-478.17"/>
<polyline fill="none" stroke="black" points="84.51,-478.17 96.51,-490.17"/>
<polyline fill="none" stroke="black" points="96.51,-552.57 84.51,-564.57"/>
<text text-anchor="middle" x="53.31" y="-517.5" font-family="Times,serif" font-size="10.00">Msquare</text>
</g>
<!-- n51&#45;&gt;n61 -->
<!-- n62 -->
<g id="node27" class="node">
<title>n62</title>
<ellipse fill="white" stroke="black" cx="196.31" cy="-521.37" rx="43.2" ry="43.2"/>
<polyline fill="none" stroke="black" points="224.88,-553.77 167.74,-553.77"/>
<polyline fill="none" stroke="black" points="224.88,-488.97 167.74,-488.97"/>
<text text-anchor="middle" x="196.31" y="-517.5" font-family="Times,serif" font-size="10.00">Mcircle</text>
</g>
<!-- n52&#45;&gt;n62 -->
<!-- n63 -->
<g id="node28" class="node">
<title>n63</title>
<polygon fill="white" stroke="black" points="388.51,-539.37 302.11,-539.37 302.11,-503.37 388.51,-503.37 388.51,-539.37"/>
<text text-anchor="middle" x="345.31" y="-517.5" font-family="Times,serif" font-size="10.00">rect</text>
</g>
<!-- n53&#45;&gt;n63 -->
<!-- n64 -->
<g id="node29" class="node">
<title>n64</title>
<polygon fill="white" stroke="black" points="512.51,-539.37 426.11,-539.37 426.11,-503.37 512.51,-503.37 512.51,-539.37"/>
<text text-anchor="middle" x="469.31" y="-517.5" font-family="Times,serif" font-size="10.00">rectangle</text>
</g>
<!-- n54&#45;&gt;n64 -->
<!-- n65 -->
<g id="node30" class="node">
<title>n65</title>
<polygon fill="white" stroke="black" points="631.51,-564.57 545.11,-564.57 545.11,-478.17 631.51,-478.17 631.51,-564.57"/>
<text text-anchor="middle" x="588.31" y="-517.5" font-family="Times,serif" font-size="10.00">square</text>
</g>
<!-- n55&#45;&gt;n65 -->
<!-- n71 -->
<g id="node31" class="node">
<title>n71</title>
<polygon fill="white" stroke="black" points="96.51,-410.78 63.51,-410.78 53.31,-442.17 43.11,-410.78 10.11,-410.78 36.81,-391.39 26.61,-360 53.31,-379.4 80.01,-360 69.81,-391.39 96.51,-410.78"/>
<text text-anchor="middle" x="53.31" y="-397.21" font-family="Times,serif" font-size="10.00">star</text>
</g>
<!-- n61&#45;&gt;n71 -->
<!-- n72 -->
<g id="node32" class="node">
<title>n72</title>
<polygon fill="white" stroke="none" points="239.51,-419.09 153.11,-419.09 153.11,-383.09 239.51,-383.09 239.51,-419.09"/>
<text text-anchor="middle" x="196.31" y="-397.21" font-family="Times,serif" font-size="10.00">none</text>
</g>
<!-- n62&#45;&gt;n72 -->
<!-- n73 -->
<g id="node33" class="node">
<title>n73</title>
<polygon fill="white" stroke="none" points="388.51,-419.09 302.11,-419.09 302.11,-383.09 388.51,-383.09 388.51,-419.09"/>
<polyline fill="none" stroke="black" points="302.11,-383.09 388.51,-383.09"/>
<text text-anchor="middle" x="345.31" y="-397.21" font-family="Times,serif" font-size="10.00">underline</text>
</g>
<!-- n63&#45;&gt;n73 -->
<!-- n74 -->
<g id="node34" class="node">
<title>n74</title>
<path fill="white" stroke="black" d="M512.51,-415.81C512.51,-417.62 493.15,-419.09 469.31,-419.09 445.47,-419.09 426.11,-417.62 426.11,-415.81 426.11,-415.81 426.11,-386.36 426.11,-386.36 426.11,-384.55 445.47,-383.09 469.31,-383.09 493.15,-383.09 512.51,-384.55 512.51,-386.36 512.51,-386.36 512.51,-415.81 512.51,-415.81"/>
<path fill="none" stroke="black" d="M512.51,-415.81C512.51,-414.01 493.15,-412.54 469.31,-412.54 445.47,-412.54 426.11,-414.01 426.11,-415.81"/>
<text text-anchor="middle" x="469.31" y="-397.21" font-family="Times,serif" font-size="10.00">cylinder</text>
</g>
<!-- n64&#45;&gt;n74 -->
<!-- n75 -->
<g id="node35" class="node">
<title>n75</title>
<polygon fill="white" stroke="black" points="625.51,-419.09 545.11,-419.09 545.11,-383.09 631.51,-383.09 631.51,-413.09 625.51,-419.09"/>
<polyline fill="none" stroke="black" points="625.51,-419.09 625.51,-413.09"/>
<polyline fill="none" stroke="black" points="631.51,-413.09 625.51,-413.09"/>
<text text-anchor="middle" x="588.31" y="-397.21" font-family="Times,serif" font-size="10.00">note</text>
</g>
<!-- n65&#45;&gt;n75 -->
<!-- n81 -->
<g id="node36" class="node">
<title>n81</title>
<polygon fill="white" stroke="black" points="96.51,-324 22.11,-324 22.11,-328 10.11,-328 10.11,-288 96.51,-288 96.51,-324"/>
<polyline fill="none" stroke="black" points="10.11,-324 22.11,-324"/>
<text text-anchor="middle" x="53.31" y="-302.12" font-family="Times,serif" font-size="10.00">tab</text>
</g>
<!-- n71&#45;&gt;n81 -->
<!-- n82 -->
<g id="node37" class="node">
<title>n82</title>
<polygon fill="white" stroke="black" points="239.51,-324 236.51,-328 215.51,-328 212.51,-324 153.11,-324 153.11,-288 239.51,-288 239.51,-324"/>
<text text-anchor="middle" x="196.31" y="-302.12" font-family="Times,serif" font-size="10.00">folder</text>
</g>
<!-- n72&#45;&gt;n82 -->
<!-- n83 -->
<g id="node38" class="node">
<title>n83</title>
<polygon fill="white" stroke="black" points="388.51,-324 306.11,-324 302.11,-320 302.11,-288 384.51,-288 388.51,-292 388.51,-324"/>
<polyline fill="none" stroke="black" points="384.51,-320 302.11,-320"/>
<polyline fill="none" stroke="black" points="384.51,-320 384.51,-288"/>
<polyline fill="none" stroke="black" points="384.51,-320 388.51,-324"/>
<text text-anchor="middle" x="345.31" y="-302.12" font-family="Times,serif" font-size="10.00">box3d</text>
</g>
<!-- n73&#45;&gt;n83 -->
<!-- n84 -->
<g id="node39" class="node">
<title>n84</title>
<polygon fill="white" stroke="black" points="512.51,-324 426.11,-324 426.11,-320 422.11,-320 422.11,-316 426.11,-316 426.11,-296 422.11,-296 422.11,-292 426.11,-292 426.11,-288 512.51,-288 512.51,-324"/>
<polyline fill="none" stroke="black" points="426.11,-320 430.11,-320 430.11,-316 426.11,-316"/>
<polyline fill="none" stroke="black" points="426.11,-296 430.11,-296 430.11,-292 426.11,-292"/>
<text text-anchor="middle" x="469.31" y="-302.12" font-family="Times,serif" font-size="10.00">component</text>
</g>
<!-- n74&#45;&gt;n84 -->
<!-- n85 -->
<g id="node40" class="node">
<title>n85</title>
<polygon fill="white" stroke="black" points="599.11,-324 566.71,-324 566.71,-306 572.71,-306 572.71,-318 599.11,-318 599.11,-315 611.11,-321 599.11,-327 599.11,-324"/>
<polyline fill="none" stroke="black" points="545.11,-306 631.51,-306"/>
<text text-anchor="middle" x="588.31" y="-302.12" font-family="Times,serif" font-size="10.00">promoter</text>
</g>
<!-- n75&#45;&gt;n85 -->
<!-- n91 -->
<g id="node41" class="node">
<title>n91</title>
<polygon fill="white" stroke="black" points="84.51,-246 10.11,-246 10.11,-222 84.51,-222 96.51,-234 84.51,-246"/>
<text text-anchor="middle" x="53.31" y="-230.12" font-family="Times,serif" font-size="10.00">cds</text>
</g>
<!-- n81&#45;&gt;n91 -->
<!-- n92 -->
<g id="node42" class="node">
<title>n92</title>
<polygon fill="white" stroke="black" points="199.31,-234 199.31,-240 205.31,-240 205.31,-246 187.31,-246 187.31,-240 193.31,-240 193.31,-234 199.31,-234"/>
<polyline fill="none" stroke="black" points="153.11,-234 239.51,-234"/>
<text text-anchor="middle" x="196.31" y="-230.12" font-family="Times,serif" font-size="10.00">terminator</text>
</g>
<!-- n82&#45;&gt;n92 -->
<!-- n93 -->
<g id="node43" class="node">
<title>n93</title>
<polygon fill="white" stroke="black" points="354.31,-234 354.31,-237 348.31,-243 342.31,-243 336.31,-237 336.31,-234 354.31,-234"/>
<polyline fill="none" stroke="black" points="302.11,-234 388.51,-234"/>
<text text-anchor="middle" x="345.31" y="-230.12" font-family="Times,serif" font-size="10.00">utr</text>
</g>
<!-- n83&#45;&gt;n93 -->
<!-- n94 -->
<g id="node44" class="node">
<title>n94</title>
<polygon fill="white" stroke="black" points="481.31,-237 469.31,-249 469.31,-243 447.71,-243 447.71,-237 481.31,-237"/>
<polyline fill="none" stroke="black" points="426.11,-234 512.51,-234"/>
<text text-anchor="middle" x="469.31" y="-230.12" font-family="Times,serif" font-size="10.00">primersite</text>
</g>
<!-- n84&#45;&gt;n94 -->
<!-- n95 -->
<g id="node45" class="node">
<title>n95</title>
<polygon fill="white" stroke="black" points="605.11,-237 577.51,-237 577.51,-243 571.51,-243 571.51,-231 599.11,-231 599.11,-225 605.11,-225 605.11,-237"/>
<polyline fill="none" stroke="black" points="545.11,-234 571.51,-234"/>
<polyline fill="none" stroke="black" points="605.11,-234 631.51,-234"/>
<text text-anchor="middle" x="588.31" y="-230.12" font-family="Times,serif" font-size="10.00">restrictionsite</text>
</g>
<!-- n85&#45;&gt;n95 -->
<!-- na1 -->
<g id="node46" class="node">
<title>na1</title>
<polygon fill="white" stroke="black" points="10.11,-163.5 34.11,-163.5 34.11,-169.5 10.11,-169.5 10.11,-163.5"/>
<polygon fill="white" stroke="black" points="22.11,-154.5 34.11,-154.5 34.11,-160.5 22.11,-160.5 22.11,-154.5"/>
<polyline fill="none" stroke="black" points="34.11,-162 96.51,-162"/>
<text text-anchor="middle" x="53.31" y="-158.12" font-family="Times,serif" font-size="10.00">fivepoverhang</text>
</g>
<!-- n91&#45;&gt;na1 -->
<!-- na2 -->
<g id="node47" class="node">
<title>na2</title>
<polygon fill="white" stroke="black" points="239.51,-163.5 239.51,-169.5 215.51,-169.5 215.51,-163.5 239.51,-163.5"/>
<polygon fill="white" stroke="black" points="227.51,-154.5 227.51,-160.5 215.51,-160.5 215.51,-154.5 227.51,-154.5"/>
<polyline fill="none" stroke="black" points="153.11,-162 215.51,-162"/>
<text text-anchor="middle" x="196.31" y="-158.12" font-family="Times,serif" font-size="10.00">threepoverhang</text>
</g>
<!-- n92&#45;&gt;na2 -->
<!-- na3 -->
<g id="node48" class="node">
<title>na3</title>
<polygon fill="white" stroke="black" points="331.81,-163.5 343.81,-163.5 343.81,-169.5 331.81,-169.5 331.81,-163.5"/>
<polygon fill="white" stroke="black" points="331.81,-154.5 343.81,-154.5 343.81,-160.5 331.81,-160.5 331.81,-154.5"/>
<polygon fill="white" stroke="black" points="346.81,-154.5 358.81,-154.5 358.81,-160.5 346.81,-160.5 346.81,-154.5"/>
<polygon fill="white" stroke="black" points="346.81,-163.5 358.81,-163.5 358.81,-169.5 346.81,-169.5 346.81,-163.5"/>
<polyline fill="none" stroke="black" points="358.81,-162 388.51,-162"/>
<polyline fill="none" stroke="black" points="331.81,-162 302.11,-162"/>
<text text-anchor="middle" x="345.31" y="-158.12" font-family="Times,serif" font-size="10.00">noverhang</text>
</g>
<!-- n93&#45;&gt;na3 -->
<!-- na4 -->
<g id="node49" class="node">
<title>na4</title>
<polygon fill="white" stroke="black" points="457.31,-163.5 481.31,-163.5 481.31,-169.5 457.31,-169.5 457.31,-163.5"/>
<polygon fill="white" stroke="black" points="457.31,-154.5 481.31,-154.5 481.31,-160.5 457.31,-160.5 457.31,-154.5"/>
<polyline fill="none" stroke="black" points="481.31,-162 512.51,-162"/>
<polyline fill="none" stroke="black" points="426.11,-162 457.31,-162"/>
<text text-anchor="middle" x="469.31" y="-158.12" font-family="Times,serif" font-size="10.00">assembly</text>
</g>
<!-- n94&#45;&gt;na4 -->
<!-- na5 -->
<g id="node50" class="node">
<title>na5</title>
<polygon fill="white" stroke="black" points="631.51,-174 545.11,-174 545.11,-150 631.51,-150 631.51,-174"/>
<polyline fill="none" stroke="black" points="548.11,-163.5 551.11,-160.5"/>
<polyline fill="none" stroke="black" points="548.11,-160.5 551.11,-163.5"/>
<polyline fill="none" stroke="black" points="548.11,-153 628.51,-153"/>
<text text-anchor="middle" x="588.31" y="-158.12" font-family="Times,serif" font-size="10.00">signature</text>
</g>
<!-- n95&#45;&gt;na5 -->
<!-- nb1 -->
<g id="node51" class="node">
<title>nb1</title>
<polygon fill="white" stroke="black" points="59.31,-96 59.31,-84 47.31,-84 47.31,-96 59.31,-96"/>
<polyline fill="none" stroke="black" points="62.31,-99 62.31,-81 44.31,-81 44.31,-99 62.31,-99"/>
<polyline fill="none" stroke="black" points="62.31,-90 96.51,-90"/>
<polyline fill="none" stroke="black" points="10.11,-90 44.31,-90"/>
<text text-anchor="middle" x="53.31" y="-86.12" font-family="Times,serif" font-size="10.00">insulator</text>
</g>
<!-- na1&#45;&gt;nb1 -->
<!-- nb2 -->
<g id="node52" class="node">
<title>nb2</title>
<polygon fill="white" stroke="black" points="199.31,-96 199.31,-97.5 197.81,-99 199.31,-100.5 199.31,-102 197.81,-102 196.31,-100.5 194.81,-102 193.31,-102 193.31,-100.5 194.81,-99 193.31,-97.5 193.31,-96 194.81,-96 196.31,-97.5 197.81,-96 199.31,-96"/>
<polyline fill="none" stroke="black" points="196.31,-90 196.31,-91.5"/>
<polyline fill="none" stroke="black" points="196.31,-93 196.31,-94.5"/>
<polyline fill="none" stroke="black" points="153.11,-90 239.51,-90"/>
<text text-anchor="middle" x="196.31" y="-86.12" font-family="Times,serif" font-size="10.00">ribosite</text>
</g>
<!-- na2&#45;&gt;nb2 -->
<!-- nb3 -->
<g id="node53" class="node">
<title>nb3</title>
<polygon fill="white" stroke="black" points="346.81,-96 348.31,-97.5 348.31,-100.5 346.81,-102 343.81,-102 342.31,-100.5 342.31,-97.5 343.81,-96 346.81,-96"/>
<polyline fill="none" stroke="black" points="345.31,-90 345.31,-91.5"/>
<polyline fill="none" stroke="black" points="345.31,-93 345.31,-94.5"/>
<polyline fill="none" stroke="black" points="302.11,-90 388.51,-90"/>
<text text-anchor="middle" x="345.31" y="-86.12" font-family="Times,serif" font-size="10.00">rnastab</text>
</g>
<!-- na3&#45;&gt;nb3 -->
<!-- nb4 -->
<g id="node54" class="node">
<title>nb4</title>
<polygon fill="white" stroke="black" points="472.31,-96 472.31,-97.5 470.81,-99 472.31,-100.5 472.31,-102 470.81,-102 469.31,-100.5 467.81,-102 466.31,-102 466.31,-100.5 467.81,-99 466.31,-97.5 466.31,-96 467.81,-96 469.31,-97.5 470.81,-96 472.31,-96"/>
<polyline fill="none" stroke="black" points="469.31,-97.5 469.31,-90"/>
<polyline fill="none" stroke="black" points="426.11,-90 512.51,-90"/>
<text text-anchor="middle" x="469.31" y="-86.12" font-family="Times,serif" font-size="10.00">proteasesite</text>
</g>
<!-- na4&#45;&gt;nb4 -->
<!-- nb5 -->
<g id="node55" class="node">
<title>nb5</title>
<polygon fill="white" stroke="black" points="589.81,-96 591.31,-97.5 591.31,-100.5 589.81,-102 586.81,-102 585.31,-100.5 585.31,-97.5 586.81,-96 589.81,-96"/>
<polyline fill="none" stroke="black" points="588.31,-96 588.31,-90"/>
<polyline fill="none" stroke="black" points="545.11,-90 631.51,-90"/>
<text text-anchor="middle" x="588.31" y="-86.12" font-family="Times,serif" font-size="10.00">proteinstab</text>
</g>
<!-- na5&#45;&gt;nb5 -->
<!-- nc1 -->
<g id="node56" class="node">
<title>nc1</title>
<polygon fill="white" stroke="black" points="78.51,-30 10.11,-30 10.11,0 28.11,0 28.11,-6 78.51,-6 78.51,0 96.51,-18 78.51,-36 78.51,-30"/>
<text text-anchor="middle" x="53.31" y="-14.12" font-family="Times,serif" font-size="10.00">rpromoter</text>
</g>
<!-- nb1&#45;&gt;nc1 -->
<!-- nc2 -->
<g id="node57" class="node">
<title>nc2</title>
<polygon fill="white" stroke="black" points="221.51,-30 153.11,-30 153.11,-6 221.51,-6 221.51,0 239.51,-18 221.51,-36 221.51,-30"/>
<text text-anchor="middle" x="196.31" y="-14.12" font-family="Times,serif" font-size="10.00">rarrow</text>
</g>
<!-- nb2&#45;&gt;nc2 -->
<!-- nc3 -->
<g id="node58" class="node">
<title>nc3</title>
<polygon fill="white" stroke="black" points="388.51,-30 320.11,-30 320.11,-36 302.11,-18 320.11,0 320.11,-6 388.51,-6 388.51,-30"/>
<text text-anchor="middle" x="345.31" y="-14.12" font-family="Times,serif" font-size="10.00">larrow</text>
</g>
<!-- nb3&#45;&gt;nc3 -->
<!-- nc4 -->
<g id="node59" class="node">
<title>nc4</title>
<polygon fill="white" stroke="black" points="512.51,-30 444.11,-30 444.11,-36 426.11,-18 444.11,0 444.11,-6 494.51,-6 494.51,0 512.51,0 512.51,-30"/>
<text text-anchor="middle" x="469.31" y="-14.12" font-family="Times,serif" font-size="10.00">lpromoter</text>
</g>
<!-- nb4&#45;&gt;nc4 -->
</g>
</svg>
