<?xml version="1.0" encoding="UTF-8" standalone="no"?>
<!DOCTYPE svg PUBLIC "-//W3C//DTD SVG 1.1//EN" "http://www.w3.org/Graphics/SVG/1.1/DTD/svg11.dtd">
<!-- Generated by graphviz version 12.2.1 (20241206.2353)
 -->
<!-- Title: example03 Pages: 1 -->
<svg width="289pt" height="153pt" viewBox="0.00 0.00 289.18 153.39" xmlns="http://www.w3.org/2000/svg" xmlns:xlink="http://www.w3.org/1999/xlink">
    <g id="graph0" class="graph" transform="scale(1 1) rotate(0) translate(4 149.39)">
        <title>example03</title>
        <polygon fill="white" stroke="none" points="-4,4 -4,-149.39 285.18,-149.39 285.18,4 -4,4" />
        <!-- n01 -->
        <g id="node1" class="node">
            <title>n01</title>
            <polygon fill="none" stroke="black" points="159.37,-110 159.37,-128.39 113.86,-141.39 49.51,-141.39 4,-128.39 4,-110 49.51,-97 113.86,-97 159.37,-110" />
            <polygon fill="none" stroke="black" points="163.37,-106.98 163.37,-131.41 114.42,-145.39 48.95,-145.39 0,-131.41 0,-106.98 48.95,-93 114.42,-93 163.37,-106.98" />
            <text text-anchor="middle" x="81.68" y="-116.4" font-family="Times,serif" font-size="14.00">黄門様ご一行</text>
        </g>
        <!-- n02 -->
        <g id="node2" class="node">
            <title>n02</title>
            <polygon fill="none" stroke="black" points="116.68,-36 46.68,-36 46.68,0 116.68,0 116.68,-36" />
            <text text-anchor="middle" x="81.68" y="-15.2" font-family="Times,serif" font-size="14.00">悪代官&#39;s</text>
        </g>
        <!-- n01&#45;&gt;n02 -->
        <g id="edge1" class="edge">
            <title>n01&#45;&gt;n02</title>
            <path fill="none" stroke="black" d="M81.68,-92.65C81.68,-78.84 81.68,-61.74 81.68,-47.5" />
            <polygon fill="black" stroke="black" points="85.18,-47.85 81.68,-37.85 78.18,-47.85 85.18,-47.85" />
            <text text-anchor="middle" x="181.43" y="-61.7" font-family="Times,serif" font-size="14.00">この紋所が目に入らぬかっ！！</text>
        </g>
    </g>
</svg>